<svg xmlns="http://www.w3.org/2000/svg" width="700" height="820" viewBox="0 0 700 820">
  <defs>
    <linearGradient id="r" x1="0" x2="0" y1="0" y2="1">
      <stop offset="0" stop-color="#113b8f"/>
      <stop offset="1" stop-color="#0a2a66"/>
    </linearGradient>
  </defs>
  <rect width="700" height="820" fill="#f6f6f6"/>
  <g transform="translate(90 70)">
    <g transform="translate(0 0)">
      <rect x="0" y="0" width="220" height="610" rx="26" fill="url(#r)"/>
      <rect x="18" y="18" width="184" height="92" rx="16" fill="#0b2a63"/>
      <text x="110" y="60" text-anchor="middle" font-family="Arial, Helvetica, sans-serif" font-size="24" font-weight="900" fill="#ffffff">TRUMP</text>
      <text x="110" y="88" text-anchor="middle" font-family="Arial, Helvetica, sans-serif" font-size="20" font-weight="900" fill="#ffffff">2024</text>
      <g fill="#ffffff" opacity="0.9">
        <circle cx="60" cy="170" r="6"/><circle cx="110" cy="170" r="6"/><circle cx="160" cy="170" r="6"/>
        <circle cx="85" cy="210" r="6"/><circle cx="135" cy="210" r="6"/>
        <circle cx="60" cy="250" r="6"/><circle cx="110" cy="250" r="6"/><circle cx="160" cy="250" r="6"/>
        <circle cx="85" cy="290" r="6"/><circle cx="135" cy="290" r="6"/>
        <circle cx="60" cy="330" r="6"/><circle cx="110" cy="330" r="6"/><circle cx="160" cy="330" r="6"/>
        <circle cx="85" cy="370" r="6"/><circle cx="135" cy="370" r="6"/>
      </g>
      <rect x="0" y="440" width="220" height="170" rx="26" fill="#ffffff"/>
      <rect x="0" y="520" width="220" height="90" rx="26" fill="#c71f1f"/>
      <path d="M0 520h220v20H0z" fill="#ffffff"/>
      <path d="M0 560h220v20H0z" fill="#ffffff"/>
      <path d="M0 600h220v10H0z" fill="#ffffff"/>
    </g>
    <g transform="translate(300 0)">
      <rect x="0" y="0" width="220" height="610" rx="26" fill="url(#r)"/>
      <rect x="18" y="18" width="184" height="92" rx="16" fill="#0b2a63"/>
      <text x="110" y="60" text-anchor="middle" font-family="Arial, Helvetica, sans-serif" font-size="24" font-weight="900" fill="#ffffff">TRUMP</text>
      <text x="110" y="88" text-anchor="middle" font-family="Arial, Helvetica, sans-serif" font-size="20" font-weight="900" fill="#ffffff">2024</text>
      <g fill="#ffffff" opacity="0.9">
        <circle cx="60" cy="170" r="6"/><circle cx="110" cy="170" r="6"/><circle cx="160" cy="170" r="6"/>
        <circle cx="85" cy="210" r="6"/><circle cx="135" cy="210" r="6"/>
        <circle cx="60" cy="250" r="6"/><circle cx="110" cy="250" r="6"/><circle cx="160" cy="250" r="6"/>
        <circle cx="85" cy="290" r="6"/><circle cx="135" cy="290" r="6"/>
        <circle cx="60" cy="330" r="6"/><circle cx="110" cy="330" r="6"/><circle cx="160" cy="330" r="6"/>
        <circle cx="85" cy="370" r="6"/><circle cx="135" cy="370" r="6"/>
      </g>
      <rect x="0" y="440" width="220" height="170" rx="26" fill="#ffffff"/>
      <rect x="0" y="520" width="220" height="90" rx="26" fill="#c71f1f"/>
      <path d="M0 520h220v20H0z" fill="#ffffff"/>
      <path d="M0 560h220v20H0z" fill="#ffffff"/>
      <path d="M0 600h220v10H0z" fill="#ffffff"/>
    </g>
  </g>
</svg>

