<svg xmlns="http://www.w3.org/2000/svg" width="900" height="650" viewBox="0 0 900 650">
  <defs>
    <linearGradient id="bg" x1="0" x2="1" y1="0" y2="1">
      <stop offset="0" stop-color="#101010"/>
      <stop offset="1" stop-color="#2b2b2b"/>
    </linearGradient>
    <linearGradient id="gold" x1="0" x2="1">
      <stop offset="0" stop-color="#9a7d2d"/>
      <stop offset="0.5" stop-color="#f4d77a"/>
      <stop offset="1" stop-color="#9a7d2d"/>
    </linearGradient>
    <filter id="blur" x="-10%" y="-10%" width="120%" height="120%">
      <feGaussianBlur stdDeviation="10"/>
    </filter>
  </defs>
  <rect x="0" y="0" width="900" height="650" rx="26" fill="url(#bg)"/>
  <rect x="56" y="48" width="788" height="554" rx="18" fill="#0c0c0c" opacity="0.55"/>
  <rect x="130" y="98" width="270" height="350" rx="18" fill="#1a1a1a"/>
  <rect x="170" y="142" width="190" height="190" rx="22" fill="#dcdcdc" filter="url(#blur)" opacity="0.75"/>
  <rect x="194" y="342" width="142" height="18" rx="9" fill="#cfcfcf" opacity="0.4"/>
  <rect x="178" y="368" width="174" height="14" rx="7" fill="#cfcfcf" opacity="0.25"/>
  <rect x="146" y="420" width="238" height="86" rx="12" fill="#121212" opacity="0.55"/>
  <rect x="196" y="456" width="138" height="34" rx="10" fill="#efe1b8" stroke="url(#gold)" stroke-width="4"/>
  <text x="218" y="479" font-family="Arial, Helvetica, sans-serif" font-size="16" font-weight="900" fill="#2b2b2b">QFS</text>
  <text x="566" y="124" text-anchor="middle" font-family="Arial, Helvetica, sans-serif" font-size="18" font-weight="900" fill="#f4d77a" opacity="0.9">RAINBOW IS THE FUTURE • QFS VERIFIED</text>
  <text x="556" y="190" font-family="Arial, Helvetica, sans-serif" font-size="64" font-weight="900" fill="#ffffff">The Golden Age Is Here.</text>
  <rect x="468" y="222" width="356" height="10" rx="5" fill="#ffffff" opacity="0.08"/>
  <rect x="468" y="248" width="386" height="10" rx="5" fill="#ffffff" opacity="0.08"/>
  <rect x="468" y="274" width="372" height="10" rx="5" fill="#ffffff" opacity="0.08"/>
  <rect x="468" y="300" width="356" height="10" rx="5" fill="#ffffff" opacity="0.08"/>
  <rect x="468" y="326" width="392" height="10" rx="5" fill="#ffffff" opacity="0.08"/>
  <rect x="468" y="352" width="330" height="10" rx="5" fill="#ffffff" opacity="0.08"/>
  <rect x="468" y="404" width="416" height="10" rx="5" fill="#ffffff" opacity="0.08"/>
  <rect x="468" y="430" width="380" height="10" rx="5" fill="#ffffff" opacity="0.08"/>
  <rect x="468" y="456" width="404" height="10" rx="5" fill="#ffffff" opacity="0.08"/>
  <rect x="468" y="482" width="348" height="10" rx="5" fill="#ffffff" opacity="0.08"/>
  <rect x="468" y="540" width="280" height="56" rx="10" fill="url(#gold)"/>
  <text x="608" y="574" text-anchor="middle" font-family="Arial, Helvetica, sans-serif" font-size="14" font-weight="900" fill="#111111">CHECK AVAILABILITY</text>
</svg>

