<svg xmlns="http://www.w3.org/2000/svg" width="1200" height="600" viewBox="0 0 1200 600">
  <defs>
    <linearGradient id="g" x1="0" x2="1" y1="0" y2="1">
      <stop offset="0" stop-color="#f3e6c0"/>
      <stop offset="1" stop-color="#d6c58f"/>
    </linearGradient>
    <linearGradient id="foil" x1="0" x2="1">
      <stop offset="0" stop-color="#9a7d2d"/>
      <stop offset="0.5" stop-color="#f4d77a"/>
      <stop offset="1" stop-color="#9a7d2d"/>
    </linearGradient>
  </defs>
  <rect x="28" y="28" width="1144" height="544" rx="26" fill="url(#g)" stroke="#9f8c55" stroke-width="6"/>
  <rect x="70" y="70" width="1060" height="460" rx="18" fill="none" stroke="#ad9b64" stroke-width="3" opacity="0.7"/>
  <rect x="96" y="96" width="1008" height="120" rx="12" fill="#ede0b7" stroke="#b3a16a" stroke-width="2"/>
  <text x="190" y="172" font-family="Arial, Helvetica, sans-serif" font-size="64" font-weight="900" fill="#2b2b2b">QFS</text>
  <text x="330" y="172" font-family="Arial, Helvetica, sans-serif" font-size="58" font-weight="800" fill="url(#foil)">GOLD BILL</text>
  <circle cx="1035" cy="156" r="46" fill="#e7d6a2" stroke="#9a7d2d" stroke-width="4"/>
  <text x="1035" y="168" text-anchor="middle" font-family="Arial, Helvetica, sans-serif" font-size="20" font-weight="800" fill="#2b2b2b">1000</text>
  <rect x="96" y="244" width="1008" height="252" rx="12" fill="#e9dab0" stroke="#b3a16a" stroke-width="2"/>
  <rect x="128" y="280" width="240" height="180" rx="10" fill="#d7c690" stroke="#9f8c55" stroke-width="3"/>
  <text x="248" y="386" text-anchor="middle" font-family="Arial, Helvetica, sans-serif" font-size="46" font-weight="900" fill="#2b2b2b">QFS</text>
  <path d="M468 430c120-120 240-160 360-120 96 32 162 16 232-40" fill="none" stroke="#2b2b2b" stroke-width="3" opacity="0.35"/>
  <path d="M468 456c160-90 310-110 450-60 78 28 144 16 206-32" fill="none" stroke="url(#foil)" stroke-width="4" opacity="0.6"/>
  <text x="600" y="420" text-anchor="middle" font-family="Arial, Helvetica, sans-serif" font-size="40" font-weight="900" fill="#2b2b2b" opacity="0.65">ONE THOUSAND</text>
  <rect x="928" y="300" width="156" height="150" rx="12" fill="#d7c690" stroke="#9f8c55" stroke-width="3"/>
  <text x="1006" y="380" text-anchor="middle" font-family="Arial, Helvetica, sans-serif" font-size="40" font-weight="900" fill="url(#foil)">Q</text>
</svg>

