<svg xmlns="http://www.w3.org/2000/svg" width="560" height="560" viewBox="0 0 560 560">
  <defs>
    <linearGradient id="b" x1="0" x2="1" y1="0" y2="1">
      <stop offset="0" stop-color="#0b2a63"/>
      <stop offset="0.45" stop-color="#ffffff"/>
      <stop offset="1" stop-color="#c71f1f"/>
    </linearGradient>
    <linearGradient id="g" x1="0" x2="1">
      <stop offset="0" stop-color="#9a7d2d"/>
      <stop offset="0.5" stop-color="#f4d77a"/>
      <stop offset="1" stop-color="#9a7d2d"/>
    </linearGradient>
  </defs>
  <rect x="0" y="0" width="560" height="560" fill="#ffffff"/>
  <rect x="0" y="0" width="560" height="560" fill="url(#b)" opacity="0.18"/>
  <rect x="44" y="44" width="472" height="472" rx="26" fill="#0b0b0b" opacity="0.55"/>

  <g transform="translate(66 74)">
    <rect x="0" y="0" width="428" height="280" rx="20" fill="#f0e2b8" stroke="#b9a66f" stroke-width="8"/>
    <rect x="30" y="34" width="368" height="70" rx="14" fill="#e7d6a2"/>
    <text x="62" y="82" font-family="Arial, Helvetica, sans-serif" font-size="44" font-weight="900" fill="#2b2b2b">QFS</text>
    <text x="160" y="82" font-family="Arial, Helvetica, sans-serif" font-size="36" font-weight="900" fill="url(#g)">GOLD</text>
    <rect x="30" y="124" width="368" height="124" rx="14" fill="#e9dab0"/>
    <rect x="56" y="148" width="120" height="88" rx="12" fill="#d7c690" stroke="#9f8c55" stroke-width="4"/>
    <rect x="196" y="148" width="180" height="12" rx="6" fill="#d7c690"/>
    <rect x="196" y="172" width="180" height="12" rx="6" fill="#d7c690"/>
    <rect x="196" y="196" width="156" height="12" rx="6" fill="#d7c690"/>
    <circle cx="360" cy="70" r="28" fill="#fbf3d6" stroke="url(#g)" stroke-width="6"/>
  </g>

  <g transform="translate(104 320)">
    <rect x="0" y="0" width="352" height="170" rx="18" fill="#163a2a" stroke="#b9a66f" stroke-width="8"/>
    <path d="M26 132c74-54 142-70 206-48 42 14 82 14 120-6" fill="none" stroke="#f4d77a" stroke-width="8" opacity="0.9"/>
    <text x="26" y="62" font-family="Arial, Helvetica, sans-serif" font-size="28" font-weight="900" fill="#f4d77a">NESARA</text>
    <text x="26" y="92" font-family="Arial, Helvetica, sans-serif" font-size="16" font-weight="800" fill="#f4d77a" opacity="0.85">THE AGE OF GLOBAL</text>
    <text x="26" y="114" font-family="Arial, Helvetica, sans-serif" font-size="16" font-weight="800" fill="#f4d77a" opacity="0.85">PEACE AND PROSPERITY</text>
  </g>

  <rect x="380" y="128" width="130" height="220" rx="14" fill="#000000" opacity="0.25"/>
</svg>

